<svg width="150" height="64" viewBox="0 0 150 64" fill="none" xmlns="http://www.w3.org/2000/svg">
<g clip-path="url(#clip0_15_862)">
<path d="M45.7043 39.075V26.1803H47.5043V39.075H45.7043ZM46.4087 33.5459V32.0025H53.8239V33.5459H46.4087ZM46.4087 27.7628V26.1803H54.6652V27.7628H46.4087ZM60.8017 39.329C60.006 39.329 59.3017 39.2118 58.6886 38.9773C58.0886 38.7299 57.5799 38.3782 57.1626 37.9223C56.7452 37.4664 56.4321 36.9259 56.2234 36.3007C56.0147 35.6755 55.9104 34.9722 55.9104 34.1907C55.9104 33.3961 56.0147 32.6667 56.2234 32.0025C56.4321 31.3382 56.7386 30.7586 57.143 30.2636C57.5473 29.7687 58.043 29.3909 58.6299 29.1304C59.2169 28.8569 59.8886 28.7201 60.6452 28.7201C61.3104 28.7201 61.9169 28.8309 62.4647 29.0523C63.0126 29.2737 63.4756 29.6189 63.8539 30.0878C64.2452 30.5437 64.5386 31.1233 64.7343 31.8266C64.9299 32.5169 65.0082 33.331 64.9691 34.2688L57.0256 34.3274V33.1161L63.893 33.0575L63.2865 33.8781C63.3517 33.0575 63.2734 32.3802 63.0517 31.8462C62.8299 31.3121 62.5104 30.9084 62.093 30.6348C61.6886 30.3613 61.206 30.2245 60.6452 30.2245C60.0452 30.2245 59.5169 30.3808 59.0604 30.6934C58.6039 31.006 58.2517 31.4554 58.0039 32.0415C57.7691 32.6277 57.6517 33.3375 57.6517 34.1711C57.6517 35.3694 57.9191 36.2877 58.4539 36.9259C58.9886 37.5511 59.7843 37.8637 60.8408 37.8637C61.2452 37.8637 61.5973 37.8181 61.8973 37.7269C62.2104 37.6227 62.4712 37.486 62.6799 37.3167C62.9017 37.1343 63.0778 36.9259 63.2082 36.6915C63.3517 36.457 63.4626 36.203 63.5408 35.9295L65.106 36.3007C64.9886 36.7696 64.806 37.1929 64.5582 37.5706C64.3234 37.9353 64.0234 38.2479 63.6582 38.5084C63.306 38.7689 62.8952 38.9708 62.4256 39.1141C61.956 39.2574 61.4147 39.329 60.8017 39.329ZM71.8836 39.329C71.0879 39.329 70.3836 39.2118 69.7705 38.9773C69.1705 38.7299 68.6618 38.3782 68.2445 37.9223C67.8271 37.4664 67.514 36.9259 67.3053 36.3007C67.0966 35.6755 66.9923 34.9722 66.9923 34.1907C66.9923 33.3961 67.0966 32.6667 67.3053 32.0025C67.514 31.3382 67.8205 30.7586 68.2249 30.2636C68.6292 29.7687 69.1249 29.3909 69.7118 29.1304C70.2988 28.8569 70.9705 28.7201 71.7271 28.7201C72.3923 28.7201 72.9988 28.8309 73.5466 29.0523C74.0945 29.2737 74.5575 29.6189 74.9358 30.0878C75.3271 30.5437 75.6205 31.1233 75.8162 31.8266C76.0118 32.5169 76.0901 33.331 76.051 34.2688L68.1075 34.3274V33.1161L74.9749 33.0575L74.3684 33.8781C74.4336 33.0575 74.3553 32.3802 74.1336 31.8462C73.9118 31.3121 73.5923 30.9084 73.1749 30.6348C72.7705 30.3613 72.2879 30.2245 71.7271 30.2245C71.1271 30.2245 70.5988 30.3808 70.1423 30.6934C69.6858 31.006 69.3336 31.4554 69.0858 32.0415C68.851 32.6277 68.7336 33.3375 68.7336 34.1711C68.7336 35.3694 69.001 36.2877 69.5358 36.9259C70.0705 37.5511 70.8662 37.8637 71.9227 37.8637C72.3271 37.8637 72.6792 37.8181 72.9792 37.7269C73.2923 37.6227 73.5532 37.486 73.7618 37.3167C73.9836 37.1343 74.1597 36.9259 74.2901 36.6915C74.4336 36.457 74.5445 36.203 74.6227 35.9295L76.1879 36.3007C76.0705 36.7696 75.8879 37.1929 75.6401 37.5706C75.4053 37.9353 75.1053 38.2479 74.7401 38.5084C74.3879 38.7689 73.9771 38.9708 73.5075 39.1141C73.0379 39.2574 72.4966 39.329 71.8836 39.329ZM82.221 39.329C81.3602 39.329 80.6232 39.1011 80.0102 38.6452C79.3971 38.1893 78.9276 37.5641 78.6015 36.7696C78.2884 35.9751 78.1319 35.0633 78.1319 34.0344C78.1319 33.0054 78.2884 32.0936 78.6015 31.2991C78.9145 30.5046 79.371 29.8794 79.971 29.4235C80.571 28.9676 81.308 28.7397 82.1819 28.7397C82.8993 28.7397 83.4863 28.8895 83.9428 29.1891C84.3993 29.4886 84.7645 29.8794 85.0384 30.3613C85.3254 30.8302 85.5341 31.3447 85.6645 31.9048H86.0167C85.9515 31.527 85.8928 31.1363 85.8406 30.7325C85.7884 30.3157 85.7428 29.9119 85.7036 29.5212C85.6645 29.1174 85.6449 28.7592 85.6449 28.4466V25.3988H87.4449V34.093V39.075H85.8406L85.9384 36.3398H85.6254C85.4689 36.9259 85.2471 37.4469 84.9602 37.9028C84.6732 38.3456 84.308 38.6973 83.8645 38.9578C83.421 39.2053 82.8732 39.329 82.221 39.329ZM82.6319 37.766C83.1015 37.766 83.5254 37.6553 83.9036 37.4339C84.2819 37.2125 84.6015 36.9259 84.8623 36.5742C85.1232 36.2095 85.3189 35.8188 85.4493 35.402C85.5928 34.9852 85.6645 34.5814 85.6645 34.1907V33.9562C85.6645 33.6827 85.6254 33.3896 85.5471 33.077C85.4689 32.7514 85.3515 32.4258 85.1949 32.1001C85.0515 31.7745 84.8558 31.4749 84.608 31.2014C84.3732 30.9149 84.0928 30.6934 83.7667 30.5371C83.4406 30.3678 83.0754 30.2832 82.671 30.2832C82.0841 30.2832 81.5884 30.4525 81.1841 30.7911C80.7928 31.1168 80.4928 31.5661 80.2841 32.1392C80.0884 32.7123 79.9906 33.3571 79.9906 34.0734C79.9906 34.8159 80.0949 35.4671 80.3036 36.0272C80.5123 36.5742 80.8123 37.0041 81.2036 37.3167C81.608 37.6162 82.0841 37.766 82.6319 37.766Z" fill="#166534"/>
<path d="M89.5476 39.075L94.0867 26.1803H96.7085L101.248 39.075H99.3106L95.515 27.6847H95.2802L91.4846 39.075H89.5476ZM91.6998 36.1835V34.8159H99.3106V36.1835H91.6998ZM103.67 39.075V31.9439H101.87V30.5176L104.394 30.6739V30.3418C104.068 30.2115 103.794 30.0357 103.573 29.8143C103.364 29.5798 103.201 29.3128 103.083 29.0132C102.979 28.7136 102.927 28.3945 102.927 28.0559C102.927 27.5088 103.044 27.0334 103.279 26.6296C103.527 26.2259 103.873 25.9068 104.316 25.6723C104.773 25.4379 105.314 25.3206 105.94 25.3206C106.436 25.3206 106.879 25.3923 107.27 25.5355C107.675 25.6658 108.007 25.8416 108.268 26.0631L108.053 27.7237C107.805 27.4893 107.505 27.3069 107.153 27.1767C106.801 27.0334 106.449 26.9618 106.097 26.9618C105.666 26.9618 105.314 27.0985 105.04 27.3721C104.766 27.6456 104.629 28.0689 104.629 28.642C104.629 28.9676 104.675 29.2477 104.766 29.4821C104.857 29.7166 104.975 29.9185 105.118 30.0878C105.275 30.2441 105.431 30.3743 105.588 30.4785H108.092L108.073 31.9439H105.431V39.075H103.67ZM110.091 39.075V33.6045V28.9741H111.695L111.538 32.4909H111.871C111.988 31.7224 112.171 31.0581 112.419 30.4981C112.667 29.938 112.993 29.5017 113.397 29.1891C113.815 28.8765 114.33 28.7202 114.943 28.7202C115.073 28.7202 115.223 28.7332 115.393 28.7592C115.562 28.7723 115.758 28.8178 115.98 28.896L115.882 30.7521C115.686 30.6739 115.491 30.6218 115.295 30.5958C115.099 30.5567 114.91 30.5371 114.728 30.5371C114.219 30.5371 113.775 30.7 113.397 31.0256C113.032 31.3512 112.725 31.7941 112.478 32.3541C112.23 32.9012 112.028 33.5199 111.871 34.2102V39.075H110.091ZM117.925 39.075V28.9741H119.705V39.075H117.925ZM118.825 27.2158C118.407 27.2158 118.094 27.1311 117.886 26.9618C117.677 26.7925 117.573 26.5385 117.573 26.1998C117.573 25.8612 117.677 25.6072 117.886 25.4379C118.094 25.2685 118.401 25.1839 118.805 25.1839C119.223 25.1839 119.536 25.2685 119.744 25.4379C119.953 25.6072 120.057 25.8612 120.057 26.1998C120.057 26.5254 119.953 26.7794 119.744 26.9618C119.536 27.1311 119.229 27.2158 118.825 27.2158ZM127.14 39.329C126.253 39.329 125.497 39.1858 124.87 38.8992C124.257 38.6127 123.755 38.2284 123.364 37.7465C122.986 37.2646 122.705 36.711 122.523 36.0858C122.353 35.4606 122.268 34.8094 122.268 34.1321C122.268 33.3896 122.366 32.6928 122.562 32.0415C122.757 31.3903 123.051 30.8172 123.442 30.3222C123.847 29.8143 124.342 29.4235 124.929 29.15C125.529 28.8634 126.227 28.7202 127.023 28.7202C127.792 28.7202 128.47 28.8569 129.057 29.1304C129.644 29.3909 130.12 29.7622 130.486 30.2441C130.864 30.726 131.105 31.2991 131.21 31.9634L129.507 32.4323C129.481 32.0676 129.37 31.7159 129.175 31.3773C128.992 31.0386 128.718 30.7651 128.353 30.5567C127.988 30.3353 127.538 30.2245 127.003 30.2245C126.494 30.2245 126.057 30.3222 125.692 30.5176C125.34 30.713 125.04 30.9865 124.792 31.3382C124.557 31.6899 124.375 32.1001 124.244 32.569C124.127 33.0379 124.068 33.5459 124.068 34.093C124.068 34.8484 124.173 35.5062 124.381 36.0663C124.603 36.6263 124.942 37.0627 125.399 37.3753C125.855 37.6879 126.442 37.8442 127.16 37.8442C127.694 37.8442 128.151 37.753 128.529 37.5707C128.907 37.3753 129.207 37.1083 129.429 36.7696C129.651 36.4179 129.794 36.0077 129.86 35.5388L131.503 35.91C131.412 36.47 131.242 36.965 130.994 37.3948C130.747 37.8246 130.434 38.1828 130.055 38.4694C129.677 38.7429 129.24 38.9513 128.744 39.0946C128.262 39.2509 127.727 39.329 127.14 39.329ZM136.092 39.329C135.544 39.329 135.049 39.2248 134.605 39.0164C134.162 38.795 133.81 38.4759 133.549 38.0591C133.288 37.6293 133.157 37.0887 133.157 36.4375C133.157 35.9556 133.242 35.5322 133.412 35.1675C133.594 34.8028 133.868 34.4902 134.233 34.2297C134.612 33.9692 135.094 33.7543 135.681 33.585C136.268 33.4157 136.986 33.2724 137.833 33.1552C138.316 33.0901 138.707 33.0249 139.007 32.9598C139.32 32.8947 139.549 32.7905 139.692 32.6472C139.836 32.4909 139.907 32.263 139.907 31.9634C139.907 31.4684 139.738 31.0516 139.399 30.713C139.06 30.3743 138.525 30.205 137.794 30.205C137.416 30.205 137.031 30.2701 136.64 30.4004C136.249 30.5306 135.903 30.7521 135.603 31.0647C135.316 31.3642 135.133 31.7875 135.055 32.3346L133.412 31.7875C133.516 31.3186 133.686 30.8953 133.92 30.5176C134.168 30.1399 134.481 29.8208 134.86 29.5603C135.238 29.2867 135.675 29.0783 136.17 28.9351C136.679 28.7918 137.24 28.7202 137.853 28.7202C138.701 28.7202 139.405 28.8634 139.966 29.15C140.54 29.4365 140.964 29.8794 141.238 30.4785C141.525 31.0647 141.668 31.8201 141.668 32.7449V34.9917C141.668 35.3955 141.675 35.8383 141.688 36.3203C141.714 36.7892 141.746 37.2646 141.786 37.7465C141.825 38.2154 141.864 38.6582 141.903 39.075H140.26C140.22 38.6582 140.181 38.2414 140.142 37.8246C140.116 37.4078 140.096 36.991 140.083 36.5742H139.829C139.633 37.0562 139.373 37.5055 139.046 37.9223C138.72 38.3391 138.31 38.6778 137.814 38.9383C137.331 39.1988 136.757 39.329 136.092 39.329ZM136.62 37.8833C136.907 37.8833 137.194 37.8377 137.481 37.7465C137.781 37.6553 138.075 37.5055 138.362 37.2971C138.662 37.0887 138.942 36.8217 139.203 36.4961C139.477 36.1705 139.718 35.7797 139.927 35.3238V33.3701L140.436 33.4678C140.227 33.6762 139.946 33.8325 139.594 33.9367C139.255 34.0409 138.877 34.1255 138.46 34.1907C138.042 34.2558 137.625 34.3274 137.207 34.4056C136.79 34.4707 136.405 34.5749 136.053 34.7182C135.714 34.8484 135.44 35.0373 135.231 35.2848C135.023 35.5322 134.918 35.8709 134.918 36.3007C134.918 36.8217 135.075 37.219 135.388 37.4925C135.701 37.753 136.112 37.8833 136.62 37.8833Z" fill="#1F2937"/>
<path d="M60.2742 22.3901C60.1363 22.3901 59.6729 22.3901 59.2251 22.3901C58.756 22.3901 58.2887 22.4475 57.8335 22.5611L55.254 23.2052C54.4484 23.4063 53.6032 23.08 53.1427 22.3901L52.7909 21.9385C52.27 21.2697 51.137 20.67 50.5474 20.0606C49.5062 18.9843 48.9176 17.749 48.2009 16.4346C48.137 16.3176 48.0779 16.2007 48.0238 16.0854C47.6074 15.2007 47.1634 14.3058 46.5347 13.5565C46.2463 13.2126 45.9766 12.8678 45.7313 12.5371C44.8769 11.3867 45.1686 9.51461 44.9035 8.10703C44.7075 7.06568 43.8108 6.61783 42.7652 6.43779L42.2963 6.35706C41.6009 6.23734 40.8897 6.31017 40.1891 6.39426C38.1131 6.64349 35.8181 5.94553 34.5339 5.38726C34.2497 5.26369 33.9199 5.16707 33.6303 5.27762C32.372 5.75805 30.9114 6.6542 29.6801 6.10808C29.6173 6.08026 29.5551 6.05295 29.4933 6.02622C28.3498 5.53173 27.9626 4.13238 27.9626 2.88807C27.9626 1.86098 26.6641 1.62811 25.6357 1.62811H21.8315C20.2776 1.62811 18.7945 2.43018 17.2598 2.67298C17.1651 2.68796 17.0703 2.70009 16.9756 2.70961C15.1191 2.89634 13.1115 2.95951 11.6088 4.06412L11.0794 4.45327C10.4321 4.92911 9.96854 5.61303 9.76682 6.39001C9.48086 7.49147 8.67562 8.38484 7.60868 8.78438L7.47301 8.83518C6.67369 9.13449 6.02235 9.71396 5.49055 10.3808C5.33514 10.5757 5.18458 10.7473 5.04211 10.8971C4.46541 11.5035 3.8407 12.1143 3.46619 12.8623C2.90246 13.9881 3.05163 15.3348 3.08082 16.5932C3.09453 17.185 3.00021 17.7786 2.8458 18.3372C2.35744 20.1041 1.71741 21.9756 2.5744 23.5964C3.74641 25.813 5.7358 27.9211 7.43463 29.4225C8.60967 30.4611 10.1552 30.9359 11.7244 30.9359H14.2185C15.38 30.9359 16.555 30.4497 17.6297 30.0099C17.7404 29.9647 17.8523 29.9207 17.9641 29.8782C18.8579 29.5386 19.8523 29.7405 20.6151 30.3167L20.9588 30.5765C21.2674 30.8097 21.6439 30.9359 22.0309 30.9359H22.6259C23.5119 30.9359 24.15 31.7846 23.903 32.6342C23.3969 34.5436 23.6744 35.7753 24.1123 36.4907C24.4911 37.1094 25.1979 37.4554 25.6132 38.0501C25.7865 38.2982 25.9549 38.5762 26.1171 38.8739C27.5982 41.5932 25.6037 45.5131 25.9694 48.5869C26.0848 49.5574 26.5737 50.087 27.0664 50.9315C27.9272 52.4066 28.4772 54.248 28.7752 55.6412C28.9585 56.4981 29.2934 57.3192 29.7587 58.0619C30.5785 59.3708 30.9315 60.3685 31.0464 61.044C31.1351 61.5655 31.3549 62.1439 31.8028 62.4263C31.9818 62.5393 32.1894 62.5993 32.4013 62.5993H36.0817C38.4902 62.5993 40.8762 61.9248 42.3263 60.0043C43.1045 58.9737 43.8408 57.8288 44.4111 56.8695C44.8678 56.1015 45.4184 55.3915 46.0831 54.7939L46.3399 54.5631C46.5954 54.3337 46.7923 54.2737 46.9485 53.9683C47.8622 52.1823 47.8541 49.7476 49.5442 48.6644C49.9006 48.4359 50.2187 48.2327 50.4546 48.0823C50.9076 47.8387 51.1797 47.1554 51.3338 46.3181C51.7864 43.8601 50.4046 41.2683 50.4546 38.7696" stroke="#1F2937"/>
</g>
<defs>
<clipPath id="clip0_15_862">
<rect width="150" height="63.4969" fill="white"/>
</clipPath>
</defs>
</svg>
